# xmcd
#
# Track frame offsets: 
#        150
#        37893
#        64486
#        86537
#        111923
#        138809
#        154668
#        179588
#        203876
#
# Disc length: 3074 seconds
#
# Revision: 1
# Processed by: cddbd v1.5.2PL0 Copyright (c) Steve Scherf et al.
# Submitted via: ExactAudioCopy v0.95b4
#
DISCID=780c0009
DTITLE=Christian Escoude - Holidays
DYEAR=1993
DGENRE=Jazz
TTITLE0=Bird Alone
TTITLE1=J'aime Paris Au Mois De Mai
TTITLE2=Holiday For Strings
TTITLE3=Nem Um Talvez
TTITLE4=Que Nadie Sepa Mi Sufrir
TTITLE5=Cavatina
TTITLE6=The Day I Met Bill Evans
TTITLE7=After You've Gone
TTITLE8=Lyle's Song
EXTD=
EXTT0=
EXTT1=
EXTT2=
EXTT3=
EXTT4=
EXTT5=
EXTT6=
EXTT7=
EXTT8=
PLAYORDER=
